<svg width="26" height="22" viewBox="0 0 26 22" fill="none" xmlns="http://www.w3.org/2000/svg">
<path d="M4.10526 0H21.8947C22.9835 0 24.0277 0.46357 24.7976 1.28873C25.5675 2.11389 26 3.23305 26 4.4V17.6C26 18.767 25.5675 19.8861 24.7976 20.7113C24.0277 21.5364 22.9835 22 21.8947 22H4.10526C3.01648 22 1.97229 21.5364 1.2024 20.7113C0.432518 19.8861 0 18.767 0 17.6V4.4C0 3.23305 0.432518 2.11389 1.2024 1.28873C1.97229 0.46357 3.01648 0 4.10526 0ZM4.10526 1.46667C3.42105 1.46667 2.81895 1.716 2.35368 2.156L13 9.53333L23.6463 2.156C23.1811 1.716 22.5789 1.46667 21.8947 1.46667H4.10526ZM13 11.308L1.54632 3.344C1.43684 3.66667 1.36842 4.03333 1.36842 4.4V17.6C1.36842 18.378 1.65677 19.1241 2.17002 19.6742C2.68328 20.2243 3.37941 20.5333 4.10526 20.5333H21.8947C22.6206 20.5333 23.3167 20.2243 23.83 19.6742C24.3432 19.1241 24.6316 18.378 24.6316 17.6V4.4C24.6316 4.03333 24.5632 3.66667 24.4537 3.344L13 11.308Z" fill="#CFCFCF"/>
</svg>
