<svg width="35" height="8" viewBox="0 0 35 8" fill="none" xmlns="http://www.w3.org/2000/svg">
<path d="M26.213 3.75C26.213 2.75544 26.6567 1.80161 27.4466 1.09835C28.2365 0.395089 29.3078 0 30.4249 0C31.5419 0 32.6132 0.395089 33.4031 1.09835C34.193 1.80161 34.6368 2.75544 34.6368 3.75C34.6368 4.74456 34.193 5.69839 33.4031 6.40165C32.6132 7.10491 31.5419 7.5 30.4249 7.5C29.3078 7.5 28.2365 7.10491 27.4466 6.40165C26.6567 5.69839 26.213 4.74456 26.213 3.75ZM13.5772 3.75C13.5772 2.75544 14.021 1.80161 14.8109 1.09835C15.6008 0.395089 16.6721 0 17.7891 0C18.9062 0 19.9775 0.395089 20.7674 1.09835C21.5573 1.80161 22.0011 2.75544 22.0011 3.75C22.0011 4.74456 21.5573 5.69839 20.7674 6.40165C19.9775 7.10491 18.9062 7.5 17.7891 7.5C16.6721 7.5 15.6008 7.10491 14.8109 6.40165C14.021 5.69839 13.5772 4.74456 13.5772 3.75ZM0.941528 3.75C0.941528 2.75544 1.38528 1.80161 2.17517 1.09835C2.96505 0.395089 4.03637 0 5.15343 0C6.2705 0 7.34181 0.395089 8.1317 1.09835C8.92158 1.80161 9.36534 2.75544 9.36534 3.75C9.36534 4.74456 8.92158 5.69839 8.1317 6.40165C7.34181 7.10491 6.2705 7.5 5.15343 7.5C4.03637 7.5 2.96505 7.10491 2.17517 6.40165C1.38528 5.69839 0.941528 4.74456 0.941528 3.75ZM5.15343 1.875C4.5949 1.875 4.05924 2.07254 3.6643 2.42418C3.26936 2.77581 3.04748 3.25272 3.04748 3.75C3.04748 4.24728 3.26936 4.72419 3.6643 5.07582C4.05924 5.42746 4.5949 5.625 5.15343 5.625C5.71197 5.625 6.24762 5.42746 6.64257 5.07582C7.03751 4.72419 3.04748 4.24728 3.04748 3.75C3.04748 3.25272 7.03751 2.77581 6.64257 2.42418C6.24762 2.07254 5.71197 1.875 5.15343 1.875ZM17.7891 1.875C17.2306 1.875 16.695 2.07254 16.3 2.42418C15.9051 2.77581 15.6832 3.25272 15.6832 3.75C15.6832 4.24728 15.9051 4.72419 16.3 5.07582C16.695 5.42746 17.2306 5.625 17.7891 5.625C18.3477 5.625 18.8833 5.42746 19.2783 5.07582C19.6732 4.72419 15.6832 4.24728 15.6832 3.75C15.6832 3.25272 19.6732 2.77581 19.2783 2.42418C18.8833 2.07254 18.3477 1.875 17.7891 1.875ZM30.4249 1.875C29.8663 1.875 29.3307 2.07254 28.9357 2.42418C28.5408 2.77581 28.3189 3.25272 28.3189 3.75C28.3189 4.24728 28.5408 4.72419 28.9357 5.07582C29.3307 5.42746 29.8663 5.625 30.4249 5.625C30.9834 5.625 31.5191 5.42746 31.914 5.07582C32.3089 4.72419 28.3189 4.24728 28.3189 3.75C28.3189 3.25272 32.3089 2.77581 31.914 2.42418C31.5191 2.07254 30.9834 1.875 30.4249 1.875Z" fill="#CFCFCF"/>
</svg>
