<svg width="20" height="20" viewBox="0 0 20 20" fill="none" xmlns="http://www.w3.org/2000/svg">
<path d="M16.1885 7C17.1755 7.74024 18.0668 8.59899 18.8426 9.55643C18.9475 9.68592 19 9.84296 19 10M16.1885 13C17.1755 12.2598 18.0668 11.401 18.8426 10.4436C18.9475 10.3141 19 10.157 19 10M19 10H6M11 2.52779C9.93849 1.57771 8.53671 1 7 1C3.68629 1 1 3.68629 1 7V13C1 16.3137 3.68629 19 7 19C8.53671 19 9.93849 18.4223 11 17.4722" stroke="#F37413" stroke-width="2" stroke-linecap="round" stroke-linejoin="round"/>
</svg>
