<svg width="29" height="29" viewBox="0 0 29 29" fill="none" xmlns="http://www.w3.org/2000/svg">
<path d="M12.393 21.6081C14.4328 21.6081 16.3139 20.9548 17.8529 19.8659L23.6426 25.6007C23.9113 25.8669 24.2655 26 24.6442 26C25.4381 26 26 25.3951 26 24.6207C26 24.2578 25.8779 23.9069 25.6091 23.6528L19.8561 17.9421C21.0653 16.3693 21.786 14.4214 21.786 12.3041C21.786 7.18622 17.5597 3 12.393 3C7.23845 3 3 7.17412 3 12.3041C3 17.4219 7.22623 21.6081 12.393 21.6081ZM12.393 19.5997C8.36219 19.5997 5.02762 16.2967 5.02762 12.3041C5.02762 8.31141 8.36219 5.00842 12.393 5.00842C16.4238 5.00842 19.7584 8.31141 19.7584 12.3041C19.7584 16.2967 16.4238 19.5997 12.393 19.5997Z" fill="#F37413"/>
</svg>
